# xmcd
#
# Track frame offsets:
#	150
#	14447
#	38049
#
# Disc length: 833 seconds
#
# Revision: 0
# Processed by: cddbd v1.5.2PL0 Copyright (c) Steve Scherf et al.
# Submitted via: audiograbber 1.83.01
#
DISCID=1a033f03
DTITLE=Don Johnson Big Band - One MC, One Delay [CDM)
DYEAR=2003
DGENRE=Hip-Hop
TTITLE0=One MC, One Delay
TTITLE1=One MC, One Delay (Kiva Milk Energy Remix)
TTITLE2=Helsinki Cadenza (Live In Ilosaarirock 2002)
EXTD=TR.
EXTT0=
EXTT1=
EXTT2=
PLAYORDER=
